<?xml version="1.0" encoding="utf-8"?>
<!-- Generator: Adobe Illustrator 16.0.0, SVG Export Plug-In . SVG Version: 6.00 Build 0)  -->
<!DOCTYPE svg PUBLIC "-//W3C//DTD SVG 1.1//EN" "http://www.w3.org/Graphics/SVG/1.1/DTD/svg11.dtd">
<svg version="1.1" id="areaGroup" xmlns="http://www.w3.org/2000/svg" xmlns:xlink="http://www.w3.org/1999/xlink" x="0px" y="0px"
	 width="1920px" height="1080px" viewBox="0 0 1920 1080" enable-background="new 0 0 1920 1080" xml:space="preserve">
<path id="area2" opacity="0.3" fill="#D20D72" d="M666.286,500c3.571,0,80.953-34.524,83.333-98.81s28.571-130.952,114.286-82.143
	S874.619,475,1022.238,448.81s279.763,117.857,167.857,194.048s-159.524,122.619-130.953,171.429S823.428,1017.857,794.857,850
	S692.476,657.143,603.19,657.143s-146.428-92.857-77.381-119.047C594.857,511.905,666.286,500,666.286,500z"/>
<path id="area1" opacity="0.3" fill="#0099D6" d="M1117.477,278.571c-3.932,4.625-20.238,26.19-88.096,61.905
	S821.047,351.19,831.762,463.095s130.953,183.333,219.048,244.047s298.811,121.43,366.667,36.905s280.951-283.333,164.285-320.238
	S1452,339.286,1353.19,276.19S1137.715,254.762,1117.477,278.571z"/>
</svg>
